<?xml version="1.0" encoding="utf-8"?>
<!-- Generator: Adobe Illustrator 24.0.1, SVG Export Plug-In . SVG Version: 6.00 Build 0)  -->
<svg version="1.1" id="ico" xmlns="http://www.w3.org/2000/svg" xmlns:xlink="http://www.w3.org/1999/xlink" x="0px" y="0px"
	 viewBox="0 0 1080 1080" style="enable-background:new 0 0 1080 1080;" xml:space="preserve">
<style type="text/css">
	.st0{fill:#414042;}
	.st1{fill:#FFFFFF;}
</style>
<path class="st0" d="M958,1008H122c-27.5,0-50-22.5-50-50V122c0-27.5,22.5-50,50-50h836c27.5,0,50,22.5,50,50v836
	C1008,985.5,985.5,1008,958,1008z"/>
<path class="st1" d="M311.1,792V210.4H376V792H311.1z"/>
<path class="st1" d="M499,864V427.8h183.7c49,0,82.8,7.3,101.2,21.8c18.5,14.5,27.7,40.5,27.7,77.8v65.9c0,38.3-9.1,64.8-27.4,79.4
	c-18.3,14.7-52.1,22-101.5,22H547.1V864H499z M761.2,593.3v-64.2c0-21.1-4.9-35.5-14.8-43.4c-9.9-7.8-31.3-11.7-64.3-11.7H547.1
	v174.6h135.1c32.4,0,53.7-4,63.9-12C756.2,628.7,761.2,614.2,761.2,593.3z"/>
<g id="guides">
</g>
</svg>
