<?xml version="1.0" encoding="utf-8"?>
<!-- Generator: Adobe Illustrator 24.0.1, SVG Export Plug-In . SVG Version: 6.00 Build 0)  -->
<svg version="1.1" id="assets" xmlns="http://www.w3.org/2000/svg" xmlns:xlink="http://www.w3.org/1999/xlink" x="0px" y="0px"
	 viewBox="0 0 1656 720" style="enable-background:new 0 0 1656 720;" xml:space="preserve">
<style type="text/css">
	.st0{fill:url(#SVGID_1_);stroke:#1C1C1C;stroke-width:3;stroke-miterlimit:10;}
	.st1{fill:url(#SVGID_2_);stroke:#1C1C1C;stroke-width:3;stroke-miterlimit:10;}
	.st2{fill:url(#SVGID_3_);stroke:#1C1C1C;stroke-width:3;stroke-miterlimit:10;}
	.st3{fill:url(#SVGID_4_);stroke:#1C1C1C;stroke-width:3;stroke-miterlimit:10;}
	.st4{fill:url(#SVGID_5_);stroke:#1C1C1C;stroke-width:3;stroke-miterlimit:10;}
	.st5{fill:url(#SVGID_6_);stroke:#1C1C1C;stroke-width:3;stroke-miterlimit:10;}
	.st6{fill:url(#SVGID_7_);stroke:#1C1C1C;stroke-width:3;stroke-miterlimit:10;}
	.st7{fill:url(#SVGID_8_);stroke:#1C1C1C;stroke-width:3;stroke-miterlimit:10;}
	.st8{opacity:0.95;}
	.st9{fill:url(#SVGID_9_);}
	.st10{fill:none;stroke:url(#SVGID_10_);stroke-width:14;stroke-miterlimit:10;}
	.st11{fill:none;stroke:url(#SVGID_11_);stroke-width:14;stroke-miterlimit:10;}
	.st12{fill:#1C1C1C;}
	.st13{fill:#BE202E;}
</style>
<g id="logo">
	<g id="illustrations">
		<g id="compas">
			<linearGradient id="SVGID_1_" gradientUnits="userSpaceOnUse" x1="251.0201" y1="575.0646" x2="577.0923" y2="248.9924">
				<stop  offset="0" style="stop-color:#FFFFFF"/>
				<stop  offset="1" style="stop-color:#BFBFBF"/>
			</linearGradient>
			<path class="st0" d="M144,468c-0.1,0-0.1-0.1-0.1-0.1c0-148.9,121.2-270.1,270.1-270.1c72.2,0,140,28.1,191,79.1
				s79.1,118.9,79.1,191c0,0.1-0.1,0.1-0.1,0.1H144z M604.8,400C576.2,319.4,499.5,265.2,414,265.2c-85.6,0-162.3,54.1-190.8,134.8
				H604.8L604.8,400z"/>
			<linearGradient id="SVGID_2_" gradientUnits="userSpaceOnUse" x1="250.9211" y1="574.9366" x2="577.2788" y2="248.5789">
				<stop  offset="0" style="stop-color:#FFFFFF"/>
				<stop  offset="1" style="stop-color:#BFBFBF"/>
			</linearGradient>
			<path class="st1" d="M414,198c149.1,0,270,120.8,270,270H144C144,318.8,264.8,198,414,198 M223,401h382
				c-27.9-78.7-102.9-135-191-135C325.8,266,250.8,322.3,223,401 M414,197.5c-36.5,0-71.9,7.1-105.2,21.2
				c-32.2,13.6-61.1,33.1-85.9,57.9s-44.3,53.7-57.9,85.9c-14.1,33.3-21.2,68.7-21.2,105.2c0,0.1,0.1,0.3,0.3,0.3h540
				c0.1,0,0.3-0.1,0.3-0.3c0-36.5-7.1-71.9-21.2-105.2c-13.6-32.2-33.1-61.1-57.9-85.9c-24.8-24.8-53.7-44.3-85.9-57.9
				C485.9,204.6,450.5,197.5,414,197.5L414,197.5z M223.4,400C252,319.5,328.6,265.5,414,265.5s162,54,190.6,134.5H223.4L223.4,400z
				"/>
		</g>
		<g id="pen">
			<g>
				<linearGradient id="SVGID_3_" gradientUnits="userSpaceOnUse" x1="462.75" y1="381.05" x2="489" y2="354.8">
					<stop  offset="0" style="stop-color:#FFFFFF"/>
					<stop  offset="1" style="stop-color:#BFBFBF"/>
				</linearGradient>
				<polygon class="st2" points="601.5,519.8 272,190.2 272,190 298,164 298.2,164 627.7,493.6 670,555.4 670,555.6 663.4,562.1 
					663.3,562.2 				"/>
				<linearGradient id="SVGID_4_" gradientUnits="userSpaceOnUse" x1="462.5" y1="381.6" x2="489.25" y2="354.85">
					<stop  offset="0" style="stop-color:#FFFFFF"/>
					<stop  offset="1" style="stop-color:#BFBFBF"/>
				</linearGradient>
				<path class="st3" d="M297.9,163.9l329.7,329.7l42.3,61.8l-6.6,6.6l-61.8-42.3L271.9,190L297.9,163.9 M298.4,164H298l-26,26.1
					v0.4l329.4,330l61.7,42.5h0.3l6.6-6.6v-0.3l-42.3-61.9L298.4,164L298.4,164z"/>
			</g>
			<g>
				<linearGradient id="SVGID_5_" gradientUnits="userSpaceOnUse" x1="254.5" y1="172.4" x2="280.6829" y2="146.2171">
					<stop  offset="0" style="stop-color:#FFFFFF"/>
					<stop  offset="1" style="stop-color:#BFBFBF"/>
				</linearGradient>
				<path class="st4" d="M263,180.9l-8.5-8.6c-4.6-4.9-2.6-14.6,4.5-21.7c4.4-4.4,9.8-7,14.7-7c2.8,0,5.2,0.9,6.8,2.5l0,0
					c0.1,0,0.2,0.1,0.2,0.3l8.3,8.4v0.2l-25.8,26L263,180.9L263,180.9z"/>
				<linearGradient id="SVGID_6_" gradientUnits="userSpaceOnUse" x1="253.9994" y1="173.3994" x2="280.7369" y2="146.6619">
					<stop  offset="0" style="stop-color:#FFFFFF"/>
					<stop  offset="1" style="stop-color:#BFBFBF"/>
				</linearGradient>
				<path class="st5" d="M273.7,144c2.7,0,5.1,0.8,6.8,2.5c0.1,0,0.2,0.1,0.2,0.2l8.5,8.5l-26,26l-8.5-8.5c-0.1-0.1-0.1-0.1-0.2-0.2
					c-4.6-4.8-2.6-14.4,4.5-21.5C263.5,146.5,269,144,273.7,144 M273.3,144.3L273.3,144.3c-4.9,0-10.5,2.6-14.9,7.1
					c-7.1,7.1-9.2,17-4.5,21.9l0.2,0.2l8.5,8.5h0.4l26-26v-0.5l-8.4-8.4c0-0.1-0.1-0.2-0.3-0.3C278.5,145.1,276.1,144.3,273.3,144.3
					L273.3,144.3z"/>
			</g>
			<g>
				<linearGradient id="SVGID_7_" gradientUnits="userSpaceOnUse" x1="671.6" y1="570.4" x2="678.35" y2="563.65">
					<stop  offset="0" style="stop-color:#FFFFFF"/>
					<stop  offset="1" style="stop-color:#BFBFBF"/>
				</linearGradient>
				<polygon class="st6" points="663,561.8 663,561.6 669.5,555 669.7,555 683.8,575.7 683.6,575.8 				"/>
				<linearGradient id="SVGID_8_" gradientUnits="userSpaceOnUse" x1="671.6" y1="570.8" x2="678.45" y2="563.95">
					<stop  offset="0" style="stop-color:#FFFFFF"/>
					<stop  offset="1" style="stop-color:#BFBFBF"/>
				</linearGradient>
				<path class="st7" d="M669.9,555.4L684,576l-20.6-14L669.9,555.4 M669.6,555.2l-6.6,6.6v0.4l20.6,14.1l0.3-0.3l-14.1-20.6
					L669.6,555.2L669.6,555.2z"/>
			</g>
		</g>
		<g id="axis_1_" class="st8">
			<g>
				
					<radialGradient id="SVGID_9_" cx="540" cy="204" r="72" gradientTransform="matrix(1 0 0 -1 0 420)" gradientUnits="userSpaceOnUse">
					<stop  offset="0" style="stop-color:#00427C"/>
					<stop  offset="0.8587" style="stop-color:#00427C;stop-opacity:0.9571"/>
					<stop  offset="1" style="stop-color:#00427C;stop-opacity:0.95"/>
				</radialGradient>
				<path class="st9" d="M598,158v116H482V158H598 M612,144H468v144h144V144L612,144z"/>
			</g>
			<g id="horizontal">
				
					<radialGradient id="SVGID_10_" cx="418.5" cy="204" r="194.1639" gradientTransform="matrix(1 0 0 -1 0 420)" gradientUnits="userSpaceOnUse">
					<stop  offset="0" style="stop-color:#00427C"/>
					<stop  offset="0.8587" style="stop-color:#00427C;stop-opacity:0.9571"/>
					<stop  offset="1" style="stop-color:#00427C;stop-opacity:0.95"/>
				</radialGradient>
				<line class="st10" x1="693" y1="216" x2="144" y2="216"/>
			</g>
			<g id="vertical">
				
					<radialGradient id="SVGID_11_" cx="540" cy="78" r="190.983" gradientTransform="matrix(1 0 0 -1 0 420)" gradientUnits="userSpaceOnUse">
					<stop  offset="0" style="stop-color:#00427C"/>
					<stop  offset="0.8587" style="stop-color:#00427C;stop-opacity:0.9571"/>
					<stop  offset="1" style="stop-color:#00427C;stop-opacity:0.95"/>
				</radialGradient>
				<line class="st11" x1="540" y1="612" x2="540" y2="72"/>
			</g>
		</g>
	</g>
	<g id="text">
		<path class="st12" d="M720,352V187h18v165H720z"/>
		<path class="st13" d="M772,353V251h14v13.8c2.4-5.2,6.3-9,11.8-11.5s12.6-3.7,21.4-3.7c13.3,0,22.6,2.7,27.9,8
			c5.3,5.4,7.9,14.7,7.9,28.2V352h-15v-62.7c-0.4-10.5-1.9-17.4-5-20.7c-3.1-3.3-9.1-5-18.1-5c-10.5,0-18.3,2.4-23.1,7.2
			c-4.9,4.9-7.3,12.4-6.8,22.8V352l-15.4,1H772z"/>
		<path class="st13" d="M967,251v100.1c0,14.9-2.9,25.3-8.7,31.1c-5.8,5.9-16.1,8.8-30.7,8.8h-6.9c-13.1,0-22.8-2.4-28.9-7.2
			c-6.1-4.7-9.5-12.7-10.3-23.8h15.8c0.6,6.4,2.6,10.8,6,13.2c3.4,2.5,9.5,3.8,18.3,3.8h6.7c8.8,0,15.2-1.4,19-4.3s5.7-7.4,5.7-13.8
			v-20.6c-2.8,5.5-6.7,9.5-11.7,11.9c-4.9,2.4-11.7,3.7-20,3.7c-14.4,0-24.6-3-30.5-8.8c-5.8-5.8-8.8-16-8.8-30.5V290
			c0-14.7,2.9-25,8.8-31c5.9-6,16-8.9,30.3-8.9c8.6,0,15.5,1.3,20.6,4.1c5.2,2.8,8.9,7,11.4,12.9V251h13.8H967z M952,310.1v-16.4
			c0-10.4-2.5-18.1-7.2-22.7c-4.9-4.7-12.6-7-23.3-7c-9.7,0-16.2,1.8-19.5,5.3s-5,11.6-5,24.2v17.1c0,12.6,1.7,20.6,5,24.1
			s9.7,5.3,19.5,5.3c10.7,0,18.5-2.4,23.3-7C949.5,328,952,320.5,952,310.1z"/>
		<path class="st13" d="M1032.4,354c-15.1-0.4-25.6-3.3-31.6-9.2s-8.8-31-8.8-31v-23.9c0-14.9,3-25.2,9-31.1s16.4-8.8,31.5-8.8h6.6
			c15.2,0,25.8,3,31.8,8.8c6,5.9,9.1,16.1,9.1,31V305l-72.9,0.1c-0.1,1-0.1,2.2-0.1,3.4c0,1.2,0,3.7,0,5.9c0,10.2,1.7,16.9,4.9,20.4
			s9.8,5.2,19.6,5.2h6.8c8.8,0,14.9-1.3,18.4-3.8c3.4-2.5,5.5-6.9,6-13.2h16.7c-0.7,10.6-4.1,18.3-10.2,23c-6.1,4.8-15.8,7-28.9,7
			L1032.4,354L1032.4,354z M1007,292h57v-3.9c0-9.3-1.7-15.8-5.1-19.1s-10.1-5.1-20.1-5.1h-7c-10,0-16.6,1.7-19.9,5.1
			c-3.3,3.4-5,9.7-5,19.1L1007,292L1007,292z"/>
		<path class="st13" d="M1105,353V251h14v13.8c2.4-5.2,6.3-9,11.8-11.5c5.4-2.5,12.6-3.7,21.4-3.7c13.3,0,22.6,2.7,27.9,8
			c5.3,5.4,7.9,14.7,7.9,28.2V352h-15v-62.7c-0.4-10.5-1.9-17.4-5-20.7c-3.1-3.3-9.1-5-18.1-5c-10.5,0-18.3,2.4-23.1,7.2
			c-4.8,4.9-7.3,12.4-6.8,22.8V352l-15.3,1H1105z"/>
		<path class="st13" d="M1216,227v-17h15v17H1216z M1216,352V251h15v101H1216z"/>
		<path class="st13" d="M1296,354c-15.1-0.4-25.6-3.3-31.6-9.2s-9.4-31-9.4-31v-23.9c0-14.9,3-25.2,9-31.1s16.4-8.8,31.5-8.8h7
			c15.1,0,25.6,3,31.6,8.8c6,5.9,9,16.2,9,31.1V305l-72.4,0.1c-0.1,1-0.1,2.2-0.1,3.4c0,1.2-0.1,3-0.1,5.3c0,10.4,1.7,17.3,5,20.9
			s10,5.3,20.1,5.3h7.8c8.8,0,14.9-1.3,18.4-3.8c3.4-2.5,5.5-6.9,6-13.2h15.3c-0.7,10.6-4.1,18.3-10.2,23c-6.1,4.8-15.8,7-28.9,7
			L1296,354L1296,354z M1271,292h57v-3.9c0-9.3-1.7-15.8-5.1-19.1c-3.4-3.3-10.1-5.1-20.1-5.1h-7c-10,0-16.6,1.7-19.9,5.1
			s-5,9.7-5,19.1L1271,292L1271,292z"/>
		<path class="st13" d="M1368,352V251h14v14c2.1-5.4,5.4-9.2,10-11.7c4.4-2.5,10.5-3.7,18.1-3.7c11,0,18.9,2.7,23.3,8
			c4.4,5.3,6.7,14.9,6.7,28.6v0.7h-15v-3c0-8-1.2-13.4-3.8-16.2s-7.3-4.1-14.5-4.1c-8.3,0-14.4,2.4-18.1,7s-5.6,12.4-5.6,23V352
			H1368L1368,352z"/>
		<path class="st13" d="M1462.6,239h-8.7l19.8-33h14.5L1462.6,239z M1458,352V251h15v101H1458z"/>
		<path class="st13" d="M1568.8,341.3c-2.3,4.2-5.9,7.2-10.7,9.2c-4.9,2-11.8,2.8-20.4,2.8c-15.5,0-25.8-2.3-31.1-6.7
			s-7.8-12.9-7.8-25.2c0-7.1,0.6-12.7,1.9-16.6c1.2-4,3.2-7.2,6.1-9.7c2.4-2.1,5.9-3.5,10.4-4.3s11.3-1.3,19.8-1.3
			c8.9,0,15.8,0.7,20.5,2.3c4.7,1.5,8.3,4,10.6,7.5v-17.4c0-8.3-1.7-13.5-4.6-16c-3.1-2.5-10.9-3.6-23.5-3.6
			c-9.1,0-15.2,0.9-18.2,2.9s-4.5,5.6-4.6,10.9h-16v-2.3c0-8.7,2.8-14.8,8.4-18.5c5.6-3.7,15.2-5.5,28.8-5.5
			c10.6,0,18.8,0.4,24.3,1.3c5.6,0.9,9.7,2.4,12.4,4.3c2.9,2.3,5,5.2,6.2,8.6s1.9,9.2,1.9,17.4V352h-13.3L1568.8,341.3z M1568,326.6
			V316c0-4.7-2.5-8.3-7.3-10.5c-4.8-2.3-12.7-3.4-23.3-3.4c-9.8,0-16.3,1.2-19.6,3.7s-5,7.1-5,14.1c0,7.9,1.8,13.2,5.3,15.9
			c3.5,2.7,10.4,4,20.9,4c9.4,0,16.6-1.1,21.6-3.4C1565.6,334.1,1568,330.8,1568,326.6z"/>
		<path class="st12" d="M720,509V405h43.3c11.7,0,19.7,1.7,24.1,5.2c4.4,3.4,6.6,9.6,6.6,18.4v15.6c0,9-2.1,15.3-6.5,18.7
			c-4.4,3.4-12.5,5.2-24.2,5.2H731v40L720,509L720,509z M782,444v-15.1c0-5-1.2-8.4-3.5-10.2c-2.3-1.8-7.5-2.7-15.3-2.7H731v41h32.2
			c7.8,0,12.8-0.9,15.2-2.8C780.8,452.3,782,448.8,782,444z"/>
		<path class="st13" d="M838,508.5V446h9v8.5c1.3-3.2,3.3-5.6,6.2-7.1c2.7-1.5,6.6-2.2,11.1-2.2c6.9,0,11.7,1.6,14.5,5
			c2.7,3.2,4.2,9.1,4.2,17.3v0.5h-9v-1.8c0-5-0.8-8.3-2.3-10s-4.7-2.5-9-2.5c-5.3,0-9,1.4-11.2,4.4c-2.2,2.9-3.4,7.7-3.4,14.3v36.5
			L838,508.5L838,508.5z"/>
		<path class="st13" d="M942.3,509.4c-9.3,0-16-1.8-19.7-5.5c-3.7-3.6-5.6-10-5.6-19.2v-14.9c0-9.2,1.8-15.6,5.6-19.3
			c3.7-3.6,10.2-5.5,19.7-5.5h4.4c9.3,0,16,1.8,19.7,5.5c3.7,3.6,5.6,10,5.6,19.3v14.9c0,9.2-1.8,15.6-5.6,19.3s-10.2,5.5-19.7,5.5
			L942.3,509.4L942.3,509.4z M962,482.7v-10.6c0-7.9-1-12.9-3-15s-6.3-3.2-12.9-3.2h-4.5c-6.5,0-10.6,1-12.7,3.2
			c-2,2.2-2.9,7.2-2.9,15.1v10.5c0,7.9,1,13,2.9,15.1s6.2,3.2,12.7,3.2h4.5c6.5,0,10.6-1.1,12.8-3.2
			C960.9,495.6,962,490.5,962,482.7z"/>
		<path class="st13" d="M1005.8,446h9.2l18.6,54.1l18.5-54.1h9.1l-23.7,68.3c-2.5,7.4-5.2,12.5-7.9,15.1c-2.7,2.6-6.3,4-10.8,4
			c-0.7,0-1.4,0-2.2-0.1s-1.7-0.2-2.6-0.3l0.1-8.1c0.3,0,0.6,0.1,1,0.1s1,0,1.7,0c2.8,0,5.1-0.6,6.6-1.9c1.5-1.3,3-3.7,4.5-7.5
			l2.3-6.5h-2.8L1005.8,446z"/>
		<path class="st13" d="M1118.8,509c-9.2,0-15.7-1.8-19.3-5.4c-3.6-3.5-5.5-9.8-5.5-18.9v-14.9c0-9.2,1.8-15.6,5.6-19.3
			c3.7-3.6,10.2-5.5,19.6-5.5h3.7c9.3,0,15.9,1.8,19.6,5.5c3.7,3.6,5.6,9.9,5.6,19.2v9.3l-44.9,0.1c0,0.6-0.1,1.3-0.1,2.1
			c0,0.8,0,1.8,0,3.2c0,6.6,1,10.9,3.2,13.2c2.1,2.2,6.3,3.4,12.7,3.4h4.5c5.7,0,9.6-0.8,11.9-2.4c2.2-1.6,3.5-4.5,4-8.6h8.8
			c-0.5,6.7-2.6,11.5-6.4,14.5s-9.8,4.5-18.1,4.5L1118.8,509L1118.8,509z M1102.6,471h36.4v-2.5c0-6.1-1-10.1-3.2-12.3
			c-2.2-2.2-6.5-3.2-12.9-3.2h-4.5c-6.4,0-10.6,1-12.8,3.2c-2.1,2.2-3.2,6.3-3.2,12.3L1102.6,471L1102.6,471z"/>
		<path class="st13" d="M1212.3,509.9c-9.3,0-16-1.8-19.7-5.5c-3.7-3.6-5.6-10-5.6-19.2V469c0-8.9,1.7-15.1,5.4-18.7
			c3.6-3.5,9.9-5.3,19-5.3h4.3c8.5,0,14.7,1.6,18.5,4.9c3.8,3.2,5.7,8.6,5.9,16.1l-7.9,0.1c-0.2-5.1-1.3-8.4-3.4-10.3
			s-6.2-2.8-12.1-2.8h-4.4c-6.4,0-10.4,1-12.4,3.2c-1.9,2.2-2.9,7.1-2.9,15v12c0,7.7,1,12.7,2.9,14.7s6.1,3.1,12.4,3.1h4.4
			c6,0,10.1-1,12.3-3c2.2-2,3.2-5.7,3.2-11v-1h10v1.2c0,8.1-1.9,14-5.8,17.5s-10.3,5.3-19.4,5.3L1212.3,509.9L1212.3,509.9z"/>
		<path class="st13" d="M1276,454v-8h8v-14h9v14h31v8h-31v34.8c0,4.9,0.8,8.3,2.4,10.1s4.7,2.6,9.2,2.6s7.5-0.8,9-2.5
			s2.3-5.1,2.3-10.2V487h10v0.5c0,8.8-1.4,14.7-4.4,17.7s-9,4.6-18.3,4.6c-7.3,0-12.3-1.6-15-4.9c-2.7-3.2-4.2-9-4.2-17.5V454H1276
			L1276,454z"/>
		<path class="st13" d="M1389.3,509.4c-9.3,0-16-1.8-19.7-5.5c-3.7-3.6-5.6-10-5.6-19.2v-14.9c0-9.2,1.8-15.6,5.6-19.3
			c3.7-3.6,10.2-5.5,19.7-5.5h4.4c9.3,0,16,1.8,19.7,5.5c3.7,3.6,5.6,10,5.6,19.3v14.9c0,9.2-1.8,15.6-5.6,19.3
			c-3.8,3.7-10.2,5.5-19.7,5.5L1389.3,509.4L1389.3,509.4z M1409,482.7v-10.6c0-7.9-1-12.9-3-15s-6.1-3.2-12.5-3.2h-4.4
			c-6.3,0-10.4,1-12.4,3.2s-2.9,7.2-2.9,15.1v10.5c0,7.9,1,13,2.9,15.1s6.1,3.2,12.4,3.2h4.4c6.3,0,10.4-1.1,12.5-3.2
			C1408,495.6,1409,490.5,1409,482.7z"/>
		<path class="st13" d="M1457.7,490h9.3v1.4c0,3.9,1.2,6.5,3.5,7.9s7.1,2.1,14.2,2.1c7.9,0,12.9-0.7,14.8-2.2s2.8-4.3,2.8-8.5
			c0-4.1-0.8-6.8-2.3-8.2c-1.5-1.3-5.4-2.2-11.4-2.5c-2.2-0.1-5.3-0.2-9-0.3c-8.3-0.2-13.3-0.8-14.9-1.7c-2.3-1.3-4.1-3-5.1-5.4
			s-1.5-5.5-1.5-9.7c0-6.9,1.7-11.7,5.3-14.1c3.5-2.4,11.1-3.6,23.1-3.6c9.2,0,15.5,1.2,18.7,3.5c3.3,2.3,5,6.4,5,12.3h-9.1v-0.5
			c0-2.7-1.2-4.7-3.5-5.8c-2.4-1-7.1-1.5-14.2-1.5c-6.8,0-11.1,0.6-13.1,1.9s-2.8,4-2.8,7.9c0,2.4,0.2,4.2,0.5,5.2s1,1.7,1.9,2.2
			c1.8,1,5.9,1.5,12.3,1.7c1.6,0,2.8,0.1,3.7,0.1c5.3,0.2,9.2,0.5,12.2,0.8c2.9,0.3,5.1,0.8,6.3,1.4c2.7,1.3,4.8,3,5.8,5.5
			c1.2,2.3,1.7,5.8,1.7,10.3s-0.6,8.1-1.7,10.4s-3.2,4.5-6.1,6.3c-1.3,0.9-3.5,1.5-6.5,1.8c-3,0.4-7.2,0.6-12.6,0.6
			c-10.9,0-18.2-1.3-21.8-3.9c-3.5-2.5-5.4-7.2-5.4-13.9L1457.7,490L1457.7,490z"/>
	</g>
</g>
</svg>
