<?xml version="1.0" encoding="utf-8"?>
<!-- Generator: Adobe Illustrator 24.0.1, SVG Export Plug-In . SVG Version: 6.00 Build 0)  -->
<svg version="1.1" id="Capa_1" xmlns="http://www.w3.org/2000/svg" xmlns:xlink="http://www.w3.org/1999/xlink" x="0px" y="0px"
	 viewBox="0 0 496 496" style="enable-background:new 0 0 496 496;" xml:space="preserve">
<style type="text/css">
	.st0{fill:#FFFFFF;}
	.st1{fill:#F39325;}
</style>
<g>
	<path class="st0" d="M288,496h-80v-37.8c-10.2-3-20.1-7-29.4-12.2l-26.7,26.7l-56.6-56.6l26.7-26.7c-5.2-9.3-9.2-19.2-12.2-29.4H72
		v-80h37.8c3-10.2,7-20.1,12.2-29.4l-26.7-26.7l56.6-56.6l26.7,26.7c11.2-6.2,23.1-10.8,35.6-13.8l1.9-0.2l65.9,0.2
		c12.4,3,24.4,7.6,35.6,13.8l26.7-26.7l56.6,56.6L374,250.6c5.2,9.3,9.2,19.2,12.2,29.4H424v80h-37.8c-3,10.2-7,20.1-12.2,29.4
		l26.7,26.7l-56.6,56.6L317.4,446c-9.3,5.2-19.2,9.2-29.4,12.2V496z M224,480h48v-34.2l6.1-1.5c12.8-3.1,25.1-8.2,36.4-15.1l5.4-3.3
		l24.2,24.2l33.9-33.9L353.8,392l3.3-5.4c6.9-11.3,12-23.6,15.1-36.4l1.5-6.1H408v-48h-34.2l-1.5-6.1c-3.1-12.9-8.2-25.1-15.1-36.4
		l-3.3-5.4l24.2-24.2l-33.9-33.9L320,214.3l-5.4-3.3c-11-6.8-23-11.8-35.5-14.9H217c-12.5,3.1-24.5,8.1-35.5,14.9l-5.4,3.3
		l-24.2-24.2L118,224l24.2,24.2l-3.3,5.4c-6.9,11.3-12,23.6-15.1,36.4l-1.5,6.1H88v48h34.2l1.5,6.1c3.1,12.8,8.2,25.1,15.1,36.4
		l3.3,5.4l-24.2,24.2l33.9,33.9l24.2-24.2l5.4,3.3c11.3,6.9,23.6,12,36.4,15.1l6.1,1.5L224,480L224,480z"/>
	<path class="st0" d="M128,64c-10.4,0-19.2,6.7-22.5,16H40c-13.2,0-24,10.8-24,24v289.5C6.7,396.8,0,405.6,0,416
		c0,13.2,10.8,24,24,24s24-10.8,24-24c0-10.4-6.7-19.2-16-22.5V104c0-4.4,3.6-8,8-8h65.5c3.3,9.3,12.1,16,22.5,16
		c13.2,0,24-10.8,24-24S141.2,64,128,64z M24,424c-4.4,0-8-3.6-8-8s3.6-8,8-8s8,3.6,8,8S28.4,424,24,424z M128,96c-4.4,0-8-3.6-8-8
		s3.6-8,8-8c4.4,0,8,3.6,8,8S132.4,96,128,96z"/>
	<rect x="48" y="112" class="st0" width="16" height="16"/>
	<rect x="48" y="144" class="st0" width="16" height="16"/>
	<rect x="48" y="176" class="st0" width="16" height="16"/>
	<path class="st0" d="M480,393.5V104c0-13.2-10.8-24-24-24h-65.5c-3.3-9.3-12.1-16-22.5-16c-13.2,0-24,10.8-24,24s10.8,24,24,24
		c10.4,0,19.2-6.7,22.5-16H456c4.4,0,8,3.6,8,8v289.5c-9.3,3.3-16,12.1-16,22.5c0,13.2,10.8,24,24,24s24-10.8,24-24
		C496,405.6,489.3,396.8,480,393.5z M368,96c-4.4,0-8-3.6-8-8s3.6-8,8-8s8,3.6,8,8S372.4,96,368,96z M472,424c-4.4,0-8-3.6-8-8
		s3.6-8,8-8s8,3.6,8,8S476.4,424,472,424z"/>
	<rect x="432" y="112" class="st0" width="16" height="16"/>
	<rect x="432" y="144" class="st0" width="16" height="16"/>
	<rect x="432" y="176" class="st0" width="16" height="16"/>
	<path class="st0" d="M248,416c-52.9,0-96-43.1-96-96s43.1-96,96-96s96,43.1,96,96S300.9,416,248,416z M248,240
		c-44.1,0-80,35.9-80,80s35.9,80,80,80s80-35.9,80-80S292.1,240,248,240z"/>
</g>
<path class="st1" d="M272,0v59.8l-24,8l-24-8V0c-27.9,9.9-48,36.5-48,67.8c0,25,12.7,46.9,40,59.9v265.6c9.8,4.3,20.6,6.7,32,6.7
	s22.2-2.4,32-6.7V127.7c27.3-12.9,40-34.9,40-59.9C320,36.5,299.9,9.9,272,0z"/>
<g>
	<rect x="240" y="368" class="st0" width="16" height="16"/>
	<rect x="240" y="336" class="st0" width="16" height="16"/>
	<rect x="240" y="304" class="st0" width="16" height="16"/>
</g>
</svg>
