<?xml version="1.0" encoding="utf-8"?>
<!-- Generator: Adobe Illustrator 24.0.1, SVG Export Plug-In . SVG Version: 6.00 Build 0)  -->
<svg version="1.1" id="Imagotipo" xmlns="http://www.w3.org/2000/svg" xmlns:xlink="http://www.w3.org/1999/xlink" x="0px" y="0px"
	 viewBox="0 0 864.3 160" style="enable-background:new 0 0 864.3 160;" xml:space="preserve">
<style type="text/css">
	.st0{fill:none;stroke:url(#SVGID_1_);stroke-width:6;stroke-miterlimit:10;}
	.st1{fill:none;stroke:url(#SVGID_2_);stroke-width:6;stroke-miterlimit:10;}
	.st2{fill:none;stroke:url(#SVGID_3_);stroke-width:6;stroke-miterlimit:10;}
	.st3{fill:url(#SVGID_4_);stroke:#000000;stroke-width:0.25;stroke-miterlimit:10;}
	.st4{fill:url(#SVGID_5_);stroke:#000000;stroke-width:0.25;stroke-miterlimit:10;}
	.st5{fill:url(#SVGID_6_);stroke:#000000;stroke-width:0.25;stroke-miterlimit:10;}
	.st6{fill:url(#SVGID_7_);stroke:#000000;stroke-width:0.25;stroke-miterlimit:10;}
	.st7{fill:url(#SVGID_8_);stroke:#000000;stroke-width:0.25;stroke-miterlimit:10;}
	.st8{fill:url(#SVGID_9_);stroke:#000000;stroke-width:0.25;stroke-miterlimit:10;}
	.st9{fill:url(#SVGID_10_);stroke:#000000;stroke-width:0.25;stroke-miterlimit:10;}
	.st10{fill:url(#SVGID_11_);stroke:#000000;stroke-width:0.25;stroke-miterlimit:10;}
	.st11{fill:url(#SVGID_12_);stroke:#000000;stroke-width:0.25;stroke-miterlimit:10;}
	.st12{fill:url(#SVGID_13_);stroke:#000000;stroke-width:0.25;stroke-miterlimit:10;}
	.st13{fill:url(#SVGID_14_);stroke:#000000;stroke-width:0.25;stroke-miterlimit:10;}
	.st14{fill:url(#SVGID_15_);stroke:#000000;stroke-width:0.25;stroke-miterlimit:10;}
	.st15{fill:url(#SVGID_16_);stroke:#000000;stroke-width:0.25;stroke-miterlimit:10;}
	.st16{fill:url(#SVGID_17_);stroke:#000000;stroke-width:0.25;stroke-miterlimit:10;}
	.st17{fill:url(#SVGID_18_);stroke:#000000;stroke-width:0.25;stroke-miterlimit:10;}
	.st18{fill:url(#SVGID_19_);stroke:#000000;stroke-width:0.25;stroke-miterlimit:10;}
	.st19{fill:url(#SVGID_20_);stroke:#000000;stroke-width:0.25;stroke-miterlimit:10;}
	.st20{fill:url(#SVGID_21_);stroke:#000000;stroke-width:0.25;stroke-miterlimit:10;}
	.st21{fill:url(#SVGID_22_);stroke:#000000;stroke-width:0.25;stroke-miterlimit:10;}
	.st22{fill:url(#SVGID_23_);stroke:url(#SVGID_24_);stroke-miterlimit:10;}
	.st23{fill:#FFFFFF;}
</style>
<g>
	<g id="Logotipo">
		
			<linearGradient id="SVGID_1_" gradientUnits="userSpaceOnUse" x1="765.78" y1="103.195" x2="833.98" y2="103.195" gradientTransform="matrix(1 0 0 -1 0 162)">
			<stop  offset="0" style="stop-color:#F15A24"/>
			<stop  offset="0.16" style="stop-color:#E85126"/>
			<stop  offset="0.43" style="stop-color:#D0372A"/>
			<stop  offset="0.57" style="stop-color:#C1272D"/>
			<stop  offset="0.87" style="stop-color:#FF0000"/>
			<stop  offset="0.99" style="stop-color:#C1272D"/>
		</linearGradient>
		<rect x="768.8" y="30" class="st0" width="62.2" height="57.6"/>
		
			<linearGradient id="SVGID_2_" gradientUnits="userSpaceOnUse" x1="519.98" y1="103.195" x2="862.07" y2="103.195" gradientTransform="matrix(1 0 0 -1 0 162)">
			<stop  offset="0" style="stop-color:#F15A24"/>
			<stop  offset="0.16" style="stop-color:#E85126"/>
			<stop  offset="0.43" style="stop-color:#D0372A"/>
			<stop  offset="0.57" style="stop-color:#C1272D"/>
			<stop  offset="0.87" style="stop-color:#FF0000"/>
			<stop  offset="0.99" style="stop-color:#C1272D"/>
		</linearGradient>
		<line class="st1" x1="862.1" y1="58.8" x2="520" y2="58.8"/>
		
			<linearGradient id="SVGID_3_" gradientUnits="userSpaceOnUse" x1="796.88" y1="88.795" x2="802.88" y2="88.795" gradientTransform="matrix(1 0 0 -1 0 162)">
			<stop  offset="0" style="stop-color:#F15A24"/>
			<stop  offset="0.16" style="stop-color:#E85126"/>
			<stop  offset="0.43" style="stop-color:#D0372A"/>
			<stop  offset="0.57" style="stop-color:#C1272D"/>
			<stop  offset="0.87" style="stop-color:#FF0000"/>
			<stop  offset="0.99" style="stop-color:#C1272D"/>
		</linearGradient>
		<line class="st2" x1="799.9" y1="1.2" x2="799.9" y2="145.2"/>
		
			<linearGradient id="SVGID_4_" gradientUnits="userSpaceOnUse" x1="178.67" y1="3.275" x2="178.67" y2="70.795" gradientTransform="matrix(1 0 0 -1 0 162)">
			<stop  offset="0" style="stop-color:#FFFFFF"/>
			<stop  offset="0.4" style="stop-color:#F1F1F1"/>
			<stop  offset="0.98" style="stop-color:#FFFFFF"/>
		</linearGradient>
		<path class="st3" d="M184.3,93.4v51.8h-11.2V93.4H184.3z"/>
		
			<linearGradient id="SVGID_5_" gradientUnits="userSpaceOnUse" x1="206.63" y1="3.275" x2="206.63" y2="70.795" gradientTransform="matrix(1 0 0 -1 0 162)">
			<stop  offset="0" style="stop-color:#FFFFFF"/>
			<stop  offset="0.4" style="stop-color:#F1F1F1"/>
			<stop  offset="0.98" style="stop-color:#FFFFFF"/>
		</linearGradient>
		<path class="st4" d="M202.9,145.2h-10.7v-39h9.8v2c1.7-1.9,4.2-2.8,7.5-2.8h1.7c6.6,0,9.9,3.5,9.9,10.6v29.2h-10.7v-30.6
			c0-0.4-0.2-0.8-0.4-1.1c-0.3-0.3-0.7-0.5-1.1-0.5h-4.4c-0.4,0-0.8,0.2-1.1,0.5c-0.3,0.3-0.4,0.7-0.4,1.1V145.2z"/>
		
			<linearGradient id="SVGID_6_" gradientUnits="userSpaceOnUse" x1="242.79" y1="3.235" x2="242.79" y2="70.755" gradientTransform="matrix(1 0 0 -1 0 162)">
			<stop  offset="0" style="stop-color:#FFFFFF"/>
			<stop  offset="0.4" style="stop-color:#F1F1F1"/>
			<stop  offset="0.98" style="stop-color:#FFFFFF"/>
		</linearGradient>
		<path class="st5" d="M257.2,106.2v42c0,7-3.3,10.6-9.9,10.6h-8c-6.6,0-9.9-3.5-9.9-10.6v-1.3h9.7v2.6c0,0.4,0.2,0.8,0.4,1.1
			c0.3,0.3,0.7,0.5,1.1,0.5h4.4c0.4,0,0.8-0.2,1.1-0.5c0.3-0.3,0.4-0.7,0.4-1.1v-8c-1.9,1.4-4.2,2-6.6,1.9h-1.7
			c-6.6,0-9.9-3.5-9.9-10.6v-16.9c0-7,3.3-10.6,9.9-10.6h1.7c3.8,0,6.6,1.2,8.2,3.7v-2.8H257.2z M246.5,134.1v-19.4
			c0-0.4-0.2-0.8-0.4-1.1c-0.3-0.3-0.7-0.5-1.1-0.5h-4.4c-0.4,0-0.8,0.2-1.1,0.5c-0.3,0.3-0.4,0.7-0.4,1.1v19.4
			c0,0.4,0.2,0.8,0.4,1.1c0.3,0.3,0.7,0.5,1.1,0.5h4.4c0.4,0,0.8-0.2,1.1-0.5C246.4,134.9,246.5,134.5,246.5,134.1z"/>
		
			<linearGradient id="SVGID_7_" gradientUnits="userSpaceOnUse" x1="278.97" y1="3.275" x2="278.97" y2="70.795" gradientTransform="matrix(1 0 0 -1 0 162)">
			<stop  offset="0" style="stop-color:#FFFFFF"/>
			<stop  offset="0.4" style="stop-color:#F1F1F1"/>
			<stop  offset="0.98" style="stop-color:#FFFFFF"/>
		</linearGradient>
		<path class="st6" d="M283.5,105.4c6.6,0,9.9,3.5,9.9,10.6v12.6h-18.2v8.2c0,0.4,0.2,0.8,0.4,1.1c0.3,0.3,0.7,0.5,1.1,0.5h4.4
			c0.4,0,0.8-0.2,1.1-0.5c0.3-0.3,0.4-0.7,0.4-1.1v-4.3h10.7v3c0,7-3.3,10.6-9.9,10.6h-9c-6.6,0-9.9-3.5-9.9-10.6v-19.5
			c0-7,3.3-10.6,9.9-10.6H283.5z M275.2,121.5h7.4v-7.2c0-0.4-0.2-0.8-0.4-1.1c-0.3-0.3-0.7-0.5-1.1-0.5h-4.4
			c-0.4,0-0.8,0.2-1.1,0.5c-0.3,0.3-0.4,0.7-0.4,1.1L275.2,121.5z"/>
		
			<linearGradient id="SVGID_8_" gradientUnits="userSpaceOnUse" x1="313.75" y1="3.275" x2="313.75" y2="70.795" gradientTransform="matrix(1 0 0 -1 0 162)">
			<stop  offset="0" style="stop-color:#FFFFFF"/>
			<stop  offset="0.4" style="stop-color:#F1F1F1"/>
			<stop  offset="0.98" style="stop-color:#FFFFFF"/>
		</linearGradient>
		<path class="st7" d="M310,145.2h-10.7v-39h9.8v2c1.6-1.9,4.2-2.8,7.5-2.8h1.7c6.6,0,9.9,3.5,9.9,10.6v29.2h-10.7v-30.6
			c0-0.4-0.2-0.8-0.4-1.1c-0.3-0.3-0.7-0.5-1.1-0.5h-4.4c-0.4,0-0.8,0.2-1.1,0.5c-0.3,0.3-0.4,0.7-0.4,1.1V145.2z"/>
		
			<linearGradient id="SVGID_9_" gradientUnits="userSpaceOnUse" x1="342.2315" y1="3.275" x2="342.2315" y2="70.795" gradientTransform="matrix(1 0 0 -1 0 162)">
			<stop  offset="0" style="stop-color:#FFFFFF"/>
			<stop  offset="0.4" style="stop-color:#F1F1F1"/>
			<stop  offset="0.98" style="stop-color:#FFFFFF"/>
		</linearGradient>
		<path class="st8" d="M346.4,101.3c-2.3,2.3-6,2.3-8.3,0c-2.3-2.2-2.4-5.9-0.1-8.2c0,0,0.1-0.1,0.1-0.1c1.1-1.1,2.6-1.8,4.2-1.8
			c1.6,0,3,0.6,4.1,1.7c1.1,1.1,1.8,2.6,1.7,4.2C348.1,98.7,347.5,100.2,346.4,101.3z M336.9,145.2v-39h10.7v39H336.9z"/>
		
			<linearGradient id="SVGID_10_" gradientUnits="userSpaceOnUse" x1="369.605" y1="3.275" x2="369.605" y2="70.795" gradientTransform="matrix(1 0 0 -1 0 162)">
			<stop  offset="0" style="stop-color:#FFFFFF"/>
			<stop  offset="0.4" style="stop-color:#F1F1F1"/>
			<stop  offset="0.98" style="stop-color:#FFFFFF"/>
		</linearGradient>
		<path class="st9" d="M374.1,105.4c6.6,0,9.9,3.5,9.9,10.6v12.6h-18.2v8.2c0,0.4,0.2,0.8,0.4,1.1c0.3,0.3,0.7,0.5,1.1,0.5h4.4
			c0.4,0,0.8-0.2,1.1-0.5c0.3-0.3,0.4-0.7,0.4-1.1v-4.3H384v3c0,7-3.3,10.6-9.9,10.6h-9c-6.6,0-9.9-3.5-9.9-10.6v-19.5
			c0-7,3.3-10.6,9.9-10.6H374.1z M365.9,121.5h7.4v-7.2c0-0.4-0.2-0.8-0.4-1.1c-0.3-0.3-0.7-0.5-1.1-0.5h-4.4
			c-0.4,0-0.8,0.2-1.1,0.5c-0.3,0.3-0.4,0.7-0.4,1.1V121.5z"/>
		
			<linearGradient id="SVGID_11_" gradientUnits="userSpaceOnUse" x1="399.31" y1="3.275" x2="399.31" y2="70.795" gradientTransform="matrix(1 0 0 -1 0 162)">
			<stop  offset="0" style="stop-color:#FFFFFF"/>
			<stop  offset="0.4" style="stop-color:#F1F1F1"/>
			<stop  offset="0.98" style="stop-color:#FFFFFF"/>
		</linearGradient>
		<path class="st10" d="M406.6,105.4h2.1v10.4h-5.3c-1.8,0-2.7,0.9-2.7,2.8v26.6H390v-39h9.8v3.8
			C401.3,106.9,403.6,105.4,406.6,105.4z"/>
		
			<linearGradient id="SVGID_12_" gradientUnits="userSpaceOnUse" x1="420.2315" y1="3.275" x2="420.2315" y2="70.795" gradientTransform="matrix(1 0 0 -1 0 162)">
			<stop  offset="0" style="stop-color:#FFFFFF"/>
			<stop  offset="0.4" style="stop-color:#F1F1F1"/>
			<stop  offset="0.98" style="stop-color:#FFFFFF"/>
		</linearGradient>
		<path class="st11" d="M424.4,101.3c-2.3,2.3-6,2.3-8.3,0c-2.3-2.2-2.4-5.9-0.1-8.2c0,0,0.1-0.1,0.1-0.1c1.1-1.1,2.6-1.8,4.2-1.8
			c1.6,0,3,0.6,4.1,1.7c1.1,1.1,1.8,2.6,1.7,4.2C426.1,98.7,425.5,100.2,424.4,101.3z M414.9,145.2v-39h10.7v39H414.9z"/>
		
			<linearGradient id="SVGID_13_" gradientUnits="userSpaceOnUse" x1="447.57" y1="3.275" x2="447.57" y2="70.795" gradientTransform="matrix(1 0 0 -1 0 162)">
			<stop  offset="0" style="stop-color:#FFFFFF"/>
			<stop  offset="0.4" style="stop-color:#F1F1F1"/>
			<stop  offset="0.98" style="stop-color:#FFFFFF"/>
		</linearGradient>
		<path class="st12" d="M453,106.2h9v39h-9v-2.9c-1.7,2.4-4.4,3.7-8.2,3.7h-1.7c-6.6,0-9.9-3.5-9.9-10.6v-19.5
			c0-7,3.3-10.6,9.9-10.6h1.7c3.8,0,6.6,1.2,8.2,3.7L453,106.2z M451.3,136.8v-22.1c0-0.4-0.2-0.8-0.4-1.1c-0.3-0.3-0.7-0.5-1.1-0.5
			h-4.4c-0.4,0-0.8,0.2-1.1,0.5c-0.3,0.3-0.4,0.7-0.4,1.1v22.1c0,0.4,0.2,0.8,0.4,1.1c0.3,0.3,0.7,0.5,1.1,0.5h4.4
			c0.4,0,0.8-0.2,1.1-0.5C451.1,137.5,451.3,137.1,451.3,136.8L451.3,136.8z"/>
		
			<linearGradient id="SVGID_14_" gradientUnits="userSpaceOnUse" x1="500.865" y1="3.275" x2="500.865" y2="70.795" gradientTransform="matrix(1 0 0 -1 0 162)">
			<stop  offset="0" style="stop-color:#FFFFFF"/>
			<stop  offset="0.4" style="stop-color:#F1F1F1"/>
			<stop  offset="0.98" style="stop-color:#FFFFFF"/>
		</linearGradient>
		<path class="st13" d="M506,93.4c6.6,0,9.9,3.5,9.9,10.6v10.3c0,7-3.3,10.6-9.9,10.6h-9v20.3h-11.3V93.4H506z M504.8,115.6v-12.9
			c0-0.4-0.2-0.8-0.4-1.1c-0.3-0.3-0.7-0.5-1.1-0.5H497v16.1h6.2c0.4,0,0.8-0.2,1.1-0.5C504.6,116.4,504.8,116,504.8,115.6z"/>
		
			<linearGradient id="SVGID_15_" gradientUnits="userSpaceOnUse" x1="530.505" y1="3.275" x2="530.505" y2="70.795" gradientTransform="matrix(1 0 0 -1 0 162)">
			<stop  offset="0" style="stop-color:#FFFFFF"/>
			<stop  offset="0.4" style="stop-color:#F1F1F1"/>
			<stop  offset="0.98" style="stop-color:#FFFFFF"/>
		</linearGradient>
		<path class="st14" d="M537.8,105.4h2.1v10.4h-5.3c-1.8,0-2.7,0.9-2.7,2.8v26.6h-10.7v-39h9.8v3.8
			C532.5,106.9,534.8,105.4,537.8,105.4z"/>
		
			<linearGradient id="SVGID_16_" gradientUnits="userSpaceOnUse" x1="559.1299" y1="3.275" x2="559.1299" y2="70.795" gradientTransform="matrix(1 0 0 -1 0 162)">
			<stop  offset="0" style="stop-color:#FFFFFF"/>
			<stop  offset="0.4" style="stop-color:#F1F1F1"/>
			<stop  offset="0.98" style="stop-color:#FFFFFF"/>
		</linearGradient>
		<path class="st15" d="M573.5,115.9v19.5c0,7-3.3,10.6-9.9,10.6h-9c-6.6,0-9.9-3.5-9.9-10.6v-19.5c0-7,3.3-10.6,9.9-10.6h9
			C570.2,105.4,573.5,108.9,573.5,115.9z M562.8,137.7v-24.1c0-0.4-0.2-0.8-0.4-1.1c-0.3-0.3-0.7-0.5-1.1-0.5h-4.4
			c-0.4,0-0.8,0.2-1.1,0.5c-0.3,0.3-0.4,0.7-0.4,1.1v24.1c0,0.4,0.2,0.8,0.4,1.1c0.3,0.3,0.7,0.5,1.1,0.5h4.4c0.4,0,0.8-0.2,1.1-0.5
			C562.7,138.5,562.8,138.1,562.8,137.7z"/>
		
			<linearGradient id="SVGID_17_" gradientUnits="userSpaceOnUse" x1="595.285" y1="3.235" x2="595.285" y2="70.755" gradientTransform="matrix(1 0 0 -1 0 162)">
			<stop  offset="0" style="stop-color:#FFFFFF"/>
			<stop  offset="0.4" style="stop-color:#F1F1F1"/>
			<stop  offset="0.98" style="stop-color:#FFFFFF"/>
		</linearGradient>
		<path class="st16" d="M599,106.2h10.7v42c0,7-3.3,10.6-9.9,10.6h-8c-6.6,0-9.9-3.5-9.9-10.6v-1.3h10.4v2.6c0,0.4,0.2,0.8,0.4,1.1
			c0.3,0.3,0.7,0.5,1.1,0.5h3.7c0.4,0,0.8-0.2,1.1-0.5c0.3-0.3,0.4-0.7,0.4-1.1v-7.9c-1.9,1.4-4.2,2.1-6.6,1.9h-1.6
			c-6.6,0-9.9-3.5-9.9-10.6v-26.7h10.7v28c0,0.4,0.2,0.8,0.4,1.1c0.3,0.3,0.7,0.5,1.1,0.5h4.4c0.4,0,0.8-0.2,1.1-0.5
			c0.3-0.3,0.4-0.7,0.4-1.1L599,106.2z"/>
		
			<linearGradient id="SVGID_18_" gradientUnits="userSpaceOnUse" x1="631.45" y1="3.275" x2="631.45" y2="70.795" gradientTransform="matrix(1 0 0 -1 0 162)">
			<stop  offset="0" style="stop-color:#FFFFFF"/>
			<stop  offset="0.4" style="stop-color:#F1F1F1"/>
			<stop  offset="0.98" style="stop-color:#FFFFFF"/>
		</linearGradient>
		<path class="st17" d="M636,105.4c6.6,0,9.9,3.5,9.9,10.6v12.6h-18.2v8.2c0,0.4,0.2,0.8,0.4,1.1c0.3,0.3,0.7,0.5,1.1,0.5h4.4
			c0.4,0,0.8-0.2,1.1-0.5c0.3-0.3,0.4-0.7,0.4-1.1v-4.3h10.7v3c0,7-3.3,10.6-9.9,10.6h-9c-6.6,0-9.9-3.5-9.9-10.6v-19.5
			c0-7,3.3-10.6,9.9-10.6H636z M627.7,121.5h7.4v-7.2c0-0.4-0.2-0.8-0.4-1.1c-0.3-0.3-0.7-0.5-1.1-0.5h-4.4c-0.4,0-0.8,0.2-1.1,0.5
			c-0.3,0.3-0.4,0.7-0.4,1.1L627.7,121.5z"/>
		
			<linearGradient id="SVGID_19_" gradientUnits="userSpaceOnUse" x1="666.25" y1="3.275" x2="666.25" y2="70.795" gradientTransform="matrix(1 0 0 -1 0 162)">
			<stop  offset="0" style="stop-color:#FFFFFF"/>
			<stop  offset="0.4" style="stop-color:#F1F1F1"/>
			<stop  offset="0.98" style="stop-color:#FFFFFF"/>
		</linearGradient>
		<path class="st18" d="M680.7,121.5H670v-6.9c0-0.4-0.2-0.8-0.4-1.1c-0.3-0.3-0.7-0.5-1.1-0.5H664c-0.4,0-0.8,0.2-1.1,0.5
			c-0.3,0.3-0.4,0.7-0.4,1.1v22.1c0,0.4,0.2,0.8,0.4,1.1c0.3,0.3,0.7,0.5,1.1,0.5h4.4c0.4,0,0.8-0.2,1.1-0.5
			c0.3-0.3,0.4-0.7,0.4-1.1v-6.9h10.7v5.6c0,7-3.3,10.6-9.9,10.6h-9c-6.6,0-9.9-3.5-9.9-10.6v-19.5c0-7,3.3-10.6,9.9-10.6h9
			c6.6,0,9.9,3.5,9.9,10.6V121.5z"/>
		
			<linearGradient id="SVGID_20_" gradientUnits="userSpaceOnUse" x1="696.19" y1="3.275" x2="696.19" y2="70.795" gradientTransform="matrix(1 0 0 -1 0 162)">
			<stop  offset="0" style="stop-color:#FFFFFF"/>
			<stop  offset="0.4" style="stop-color:#F1F1F1"/>
			<stop  offset="0.98" style="stop-color:#FFFFFF"/>
		</linearGradient>
		<path class="st19" d="M701.7,139h3.2v7h-7.5c-6.6,0-9.9-3.5-9.9-10.6V97.7h10.7v8.5h6.7v7.8h-6.7v21.2c-0.1,1.1,0.2,2.2,0.9,3
			C699.8,138.8,700.8,139.1,701.7,139z"/>
		
			<linearGradient id="SVGID_21_" gradientUnits="userSpaceOnUse" x1="724.97" y1="3.275" x2="724.97" y2="70.795" gradientTransform="matrix(1 0 0 -1 0 162)">
			<stop  offset="0" style="stop-color:#FFFFFF"/>
			<stop  offset="0.4" style="stop-color:#F1F1F1"/>
			<stop  offset="0.98" style="stop-color:#FFFFFF"/>
		</linearGradient>
		<path class="st20" d="M739.4,115.9v19.5c0,7-3.3,10.6-9.9,10.6h-9c-6.6,0-9.9-3.5-9.9-10.6v-19.5c0-7,3.3-10.6,9.9-10.6h9
			C736.1,105.4,739.4,108.9,739.4,115.9z M728.7,137.7v-24.1c0-0.4-0.2-0.8-0.4-1.1c-0.3-0.3-0.7-0.5-1.1-0.5h-4.4
			c-0.4,0-0.8,0.2-1.1,0.5c-0.3,0.3-0.4,0.7-0.4,1.1v24.1c0,0.4,0.2,0.8,0.4,1.1c0.3,0.3,0.7,0.5,1.1,0.5h4.4c0.4,0,0.8-0.2,1.1-0.5
			C728.5,138.5,728.7,138.1,728.7,137.7z"/>
		
			<linearGradient id="SVGID_22_" gradientUnits="userSpaceOnUse" x1="760.55" y1="3.275" x2="760.55" y2="70.795" gradientTransform="matrix(1 0 0 -1 0 162)">
			<stop  offset="0" style="stop-color:#FFFFFF"/>
			<stop  offset="0.4" style="stop-color:#F1F1F1"/>
			<stop  offset="0.98" style="stop-color:#FFFFFF"/>
		</linearGradient>
		<path class="st21" d="M765.1,120.7c6.6,0,9.9,3.5,9.9,10.6v4.2c0,7-3.3,10.6-9.9,10.6h-8.9c-6.6,0-9.9-3.5-9.9-10.6V133h9.9v3.5
			c0,0.4,0.2,0.8,0.4,1.1c0.3,0.3,0.7,0.5,1.1,0.5h6.6c0.4,0,0.8-0.2,1.1-0.5c0.3-0.3,0.4-0.7,0.4-1.1v-4.8c0-0.4-0.2-0.8-0.4-1.1
			c-0.3-0.3-0.7-0.5-1.1-0.5H756c-6.6,0-9.9-3.5-9.9-10.6v-3.6c0-7,3.3-10.6,9.9-10.6h8.4c6.6,0,9.9,3.5,9.9,10.6v1.4h-9.9v-2.5
			c0-0.4-0.2-0.8-0.4-1.1c-0.3-0.3-0.7-0.5-1.1-0.5h-6.1c-0.4,0-0.8,0.2-1.1,0.5c-0.3,0.3-0.4,0.7-0.4,1.1v4.2
			c0,0.4,0.2,0.8,0.5,1.1c0.3,0.3,0.7,0.5,1.1,0.5L765.1,120.7z"/>
	</g>
	<g id="Isotipo">
		
			<linearGradient id="SVGID_23_" gradientUnits="userSpaceOnUse" x1="76.475" y1="275.57" x2="234.035" y2="275.57" gradientTransform="matrix(1 0 0 1 -74.255 -195.585)">
			<stop  offset="0" style="stop-color:#F15A24"/>
			<stop  offset="0.16" style="stop-color:#E85126"/>
			<stop  offset="0.43" style="stop-color:#D0372A"/>
			<stop  offset="0.57" style="stop-color:#C1272D"/>
			<stop  offset="0.87" style="stop-color:#FF0000"/>
			<stop  offset="0.99" style="stop-color:#C1272D"/>
		</linearGradient>
		
			<linearGradient id="SVGID_24_" gradientUnits="userSpaceOnUse" x1="75.975" y1="275.57" x2="234.535" y2="275.57" gradientTransform="matrix(1 0 0 1 -74.255 -195.585)">
			<stop  offset="0" style="stop-color:#F15A24"/>
			<stop  offset="0.16" style="stop-color:#E85126"/>
			<stop  offset="0.43" style="stop-color:#D0372A"/>
			<stop  offset="0.57" style="stop-color:#C1272D"/>
			<stop  offset="0.87" style="stop-color:#FF0000"/>
			<stop  offset="0.99" style="stop-color:#C1272D"/>
		</linearGradient>
		<path class="st22" d="M159.8,48.5v63c0,26.1-21.2,47.3-47.3,47.3l0,0H2.2V17C2.2,8.3,9.3,1.2,18,1.2h94.5
			C138.6,1.2,159.8,22.4,159.8,48.5z"/>
		<g id="IP_1_">
			<path id="I_1_" class="st23" d="M60.2,35.3v86.7H43.4V35.3L60.2,35.3z"/>
			<path id="P_1_" class="st23" d="M108,35.3c11.1,0,16.6,5.9,16.6,17.7v17.2c0,11.8-5.5,17.7-16.6,17.7H92.8v34.1H74.1V35.3
				L108,35.3z M105.9,72.5V50.8c0-0.7-0.3-1.4-0.8-1.9c-0.4-0.4-1.1-0.7-1.8-0.7H92.8v27h10.5c0.7,0,1.4-0.3,1.8-0.8
				C105.6,73.8,105.9,73.2,105.9,72.5z"/>
		</g>
	</g>
</g>
</svg>
