<?xml version="1.0" encoding="utf-8"?>
<!-- Generator: Adobe Illustrator 24.0.1, SVG Export Plug-In . SVG Version: 6.00 Build 0)  -->
<svg version="1.1" id="Isotipo" xmlns="http://www.w3.org/2000/svg" xmlns:xlink="http://www.w3.org/1999/xlink" x="0px" y="0px"
	 viewBox="0 0 181 181" style="enable-background:new 0 0 181 181;" xml:space="preserve">
<style type="text/css">
	.st0{fill:url(#SVGID_1_);stroke:url(#SVGID_2_);stroke-miterlimit:10;}
	.st1{fill:#FFFFFF;}
</style>
<linearGradient id="SVGID_1_" gradientUnits="userSpaceOnUse" x1="0.5" y1="91.5" x2="180.5" y2="91.5" gradientTransform="matrix(1 0 0 -1 0 182)">
	<stop  offset="0" style="stop-color:#F15A24"/>
	<stop  offset="0.16" style="stop-color:#E85126"/>
	<stop  offset="0.43" style="stop-color:#D0372A"/>
	<stop  offset="0.57" style="stop-color:#C1272D"/>
	<stop  offset="0.87" style="stop-color:#FF0000"/>
	<stop  offset="0.99" style="stop-color:#C1272D"/>
</linearGradient>
<linearGradient id="SVGID_2_" gradientUnits="userSpaceOnUse" x1="0" y1="91.5" x2="181" y2="91.5" gradientTransform="matrix(1 0 0 -1 0 182)">
	<stop  offset="0" style="stop-color:#F15A24"/>
	<stop  offset="0.16" style="stop-color:#E85126"/>
	<stop  offset="0.43" style="stop-color:#D0372A"/>
	<stop  offset="0.57" style="stop-color:#C1272D"/>
	<stop  offset="0.87" style="stop-color:#FF0000"/>
	<stop  offset="0.99" style="stop-color:#C1272D"/>
</linearGradient>
<path class="st0" d="M180.5,54.5v72c0,29.8-24.2,54-54,54l0,0H0.5v-162c0-9.9,8.1-18,18-18h108C156.3,0.5,180.5,24.7,180.5,54.5z"/>
<g id="IP">
	<path id="I" class="st1" d="M66.7,39.4v99H47.5v-99L66.7,39.4z"/>
	<path id="P" class="st1" d="M121.4,39.4c12.7,0,19,6.7,19,20.2v19.7c0,13.5-6.3,20.2-19,20.2H104v38.9H82.6v-99L121.4,39.4z
		 M118.9,81.9V57.2c0-0.8-0.3-1.6-0.9-2.2c-0.5-0.5-1.3-0.8-2.1-0.8H104v30.8h12c0.8,0,1.6-0.3,2.1-0.9
		C118.6,83.4,119,82.7,118.9,81.9z"/>
</g>
</svg>
