<?xml version="1.0" encoding="utf-8"?>
<!-- Generator: Adobe Illustrator 24.0.1, SVG Export Plug-In . SVG Version: 6.00 Build 0)  -->
<svg version="1.1" id="Logotipo_1_" xmlns="http://www.w3.org/2000/svg" xmlns:xlink="http://www.w3.org/1999/xlink" x="0px"
	 y="0px" viewBox="0 0 693.3 160" style="enable-background:new 0 0 693.3 160;" xml:space="preserve">
<style type="text/css">
	.st0{fill:none;stroke:url(#SVGID_1_);stroke-width:6;stroke-miterlimit:10;}
	.st1{fill:none;stroke:url(#SVGID_2_);stroke-width:6;stroke-miterlimit:10;}
	.st2{fill:none;stroke:url(#SVGID_3_);stroke-width:6;stroke-miterlimit:10;}
	.st3{fill:url(#SVGID_4_);stroke:#000000;stroke-width:0.25;stroke-miterlimit:10;}
	.st4{fill:url(#SVGID_5_);stroke:#000000;stroke-width:0.25;stroke-miterlimit:10;}
	.st5{fill:url(#SVGID_6_);stroke:#000000;stroke-width:0.25;stroke-miterlimit:10;}
	.st6{fill:url(#SVGID_7_);stroke:#000000;stroke-width:0.25;stroke-miterlimit:10;}
	.st7{fill:url(#SVGID_8_);stroke:#000000;stroke-width:0.25;stroke-miterlimit:10;}
	.st8{fill:url(#SVGID_9_);stroke:#000000;stroke-width:0.25;stroke-miterlimit:10;}
	.st9{fill:url(#SVGID_10_);stroke:#000000;stroke-width:0.25;stroke-miterlimit:10;}
	.st10{fill:url(#SVGID_11_);stroke:#000000;stroke-width:0.25;stroke-miterlimit:10;}
	.st11{fill:url(#SVGID_12_);stroke:#000000;stroke-width:0.25;stroke-miterlimit:10;}
	.st12{fill:url(#SVGID_13_);stroke:#000000;stroke-width:0.25;stroke-miterlimit:10;}
	.st13{fill:url(#SVGID_14_);stroke:#000000;stroke-width:0.25;stroke-miterlimit:10;}
	.st14{fill:url(#SVGID_15_);stroke:#000000;stroke-width:0.25;stroke-miterlimit:10;}
	.st15{fill:url(#SVGID_16_);stroke:#000000;stroke-width:0.25;stroke-miterlimit:10;}
	.st16{fill:url(#SVGID_17_);stroke:#000000;stroke-width:0.25;stroke-miterlimit:10;}
	.st17{fill:url(#SVGID_18_);stroke:#000000;stroke-width:0.25;stroke-miterlimit:10;}
	.st18{fill:url(#SVGID_19_);stroke:#000000;stroke-width:0.25;stroke-miterlimit:10;}
	.st19{fill:url(#SVGID_20_);stroke:#000000;stroke-width:0.25;stroke-miterlimit:10;}
	.st20{fill:url(#SVGID_21_);stroke:#000000;stroke-width:0.25;stroke-miterlimit:10;}
	.st21{fill:url(#SVGID_22_);stroke:#000000;stroke-width:0.25;stroke-miterlimit:10;}
</style>
<linearGradient id="SVGID_1_" gradientUnits="userSpaceOnUse" x1="597" y1="495.6" x2="665.2" y2="495.6" gradientTransform="matrix(1 0 0 1 0 -438)">
	<stop  offset="0" style="stop-color:#F15A24"/>
	<stop  offset="0.16" style="stop-color:#E85126"/>
	<stop  offset="0.43" style="stop-color:#D0372A"/>
	<stop  offset="0.57" style="stop-color:#C1272D"/>
	<stop  offset="0.87" style="stop-color:#FF0000"/>
	<stop  offset="0.99" style="stop-color:#C1272D"/>
</linearGradient>
<rect x="600" y="28.8" class="st0" width="62.2" height="57.6"/>
<linearGradient id="SVGID_2_" gradientUnits="userSpaceOnUse" x1="351.2" y1="495.6" x2="693.3" y2="495.6" gradientTransform="matrix(1 0 0 1 0 -438)">
	<stop  offset="0" style="stop-color:#F15A24"/>
	<stop  offset="0.16" style="stop-color:#E85126"/>
	<stop  offset="0.43" style="stop-color:#D0372A"/>
	<stop  offset="0.57" style="stop-color:#C1272D"/>
	<stop  offset="0.87" style="stop-color:#FF0000"/>
	<stop  offset="0.99" style="stop-color:#C1272D"/>
</linearGradient>
<line class="st1" x1="693.3" y1="57.6" x2="351.2" y2="57.6"/>
<linearGradient id="SVGID_3_" gradientUnits="userSpaceOnUse" x1="628.1" y1="510" x2="634.1" y2="510" gradientTransform="matrix(1 0 0 1 0 -438)">
	<stop  offset="0" style="stop-color:#F15A24"/>
	<stop  offset="0.16" style="stop-color:#E85126"/>
	<stop  offset="0.43" style="stop-color:#D0372A"/>
	<stop  offset="0.57" style="stop-color:#C1272D"/>
	<stop  offset="0.87" style="stop-color:#FF0000"/>
	<stop  offset="0.99" style="stop-color:#C1272D"/>
</linearGradient>
<line class="st2" x1="631.1" y1="0" x2="631.1" y2="144"/>
<linearGradient id="SVGID_4_" gradientUnits="userSpaceOnUse" x1="9.9" y1="595.52" x2="9.9" y2="528" gradientTransform="matrix(1 0 0 1 0 -438)">
	<stop  offset="0" style="stop-color:#FFFFFF"/>
	<stop  offset="0.4" style="stop-color:#F1F1F1"/>
	<stop  offset="0.98" style="stop-color:#FFFFFF"/>
</linearGradient>
<path class="st3" d="M15.5,92.2V144H4.3V92.2H15.5z"/>
<linearGradient id="SVGID_5_" gradientUnits="userSpaceOnUse" x1="37.85" y1="595.52" x2="37.85" y2="528" gradientTransform="matrix(1 0 0 1 0 -438)">
	<stop  offset="0" style="stop-color:#FFFFFF"/>
	<stop  offset="0.4" style="stop-color:#F1F1F1"/>
	<stop  offset="0.98" style="stop-color:#FFFFFF"/>
</linearGradient>
<path class="st4" d="M34.1,144H23.4v-39h9.8v2c1.7-1.9,4.2-2.8,7.5-2.8h1.7c6.6,0,9.9,3.5,9.9,10.6V144H41.6v-30.6
	c0-0.4-0.2-0.8-0.4-1.1c-0.3-0.3-0.7-0.5-1.1-0.5h-4.4c-0.4,0-0.8,0.2-1.1,0.5s-0.4,0.7-0.4,1.1L34.1,144z"/>
<linearGradient id="SVGID_6_" gradientUnits="userSpaceOnUse" x1="73.95" y1="595.6" x2="73.95" y2="528.08" gradientTransform="matrix(1 0 0 1 0 -438)">
	<stop  offset="0" style="stop-color:#FFFFFF"/>
	<stop  offset="0.4" style="stop-color:#F1F1F1"/>
	<stop  offset="0.98" style="stop-color:#FFFFFF"/>
</linearGradient>
<path class="st5" d="M88.4,105v42c0,7-3.3,10.6-9.9,10.6h-8c-6.6,0-9.9-3.5-9.9-10.6v-1.3h9.7v2.6c0,0.4,0.2,0.8,0.4,1.1
	c0.3,0.3,0.7,0.5,1.1,0.5h4.4c0.4,0,0.8-0.2,1.1-0.5c0.3-0.3,0.4-0.7,0.4-1.1v-8c-1.9,1.4-4.2,2-6.6,1.9h-1.7
	c-6.6,0-9.9-3.5-9.9-10.6v-16.9c0-7,3.3-10.6,9.9-10.6h1.7c3.8,0,6.6,1.2,8.2,3.7V105H88.4z M77.7,132.9v-19.4
	c0-0.4-0.2-0.8-0.4-1.1c-0.3-0.3-0.7-0.5-1.1-0.5h-4.4c-0.4,0-0.8,0.2-1.1,0.5c-0.3,0.3-0.4,0.7-0.4,1.1v19.4c0,0.4,0.2,0.8,0.4,1.1
	c0.3,0.3,0.7,0.5,1.1,0.5h4.4c0.4,0,0.8-0.2,1.1-0.5C77.6,133.7,77.7,133.3,77.7,132.9z"/>
<linearGradient id="SVGID_7_" gradientUnits="userSpaceOnUse" x1="110.15" y1="595.52" x2="110.15" y2="528" gradientTransform="matrix(1 0 0 1 0 -438)">
	<stop  offset="0" style="stop-color:#FFFFFF"/>
	<stop  offset="0.4" style="stop-color:#F1F1F1"/>
	<stop  offset="0.98" style="stop-color:#FFFFFF"/>
</linearGradient>
<path class="st6" d="M114.7,104.2c6.6,0,9.9,3.5,9.9,10.6v12.6h-18.2v8.2c0,0.4,0.2,0.8,0.4,1.1c0.3,0.3,0.7,0.5,1.1,0.5h4.4
	c0.4,0,0.8-0.2,1.1-0.5c0.3-0.3,0.4-0.7,0.4-1.1v-4.3h10.7v3c0,7-3.3,10.6-9.9,10.6h-9c-6.6,0-9.9-3.5-9.9-10.6v-19.5
	c0-7,3.3-10.6,9.9-10.6C105.6,104.2,114.7,104.2,114.7,104.2z M106.5,120.3h7.4v-7.2c0-0.4-0.2-0.8-0.4-1.1
	c-0.3-0.3-0.7-0.5-1.1-0.5H108c-0.4,0-0.8,0.2-1.1,0.5c-0.3,0.3-0.4,0.7-0.4,1.1V120.3z"/>
<linearGradient id="SVGID_8_" gradientUnits="userSpaceOnUse" x1="145.05" y1="595.52" x2="145.05" y2="528" gradientTransform="matrix(1 0 0 1 0 -438)">
	<stop  offset="0" style="stop-color:#FFFFFF"/>
	<stop  offset="0.4" style="stop-color:#F1F1F1"/>
	<stop  offset="0.98" style="stop-color:#FFFFFF"/>
</linearGradient>
<path class="st7" d="M141.3,144h-10.7v-39h9.8v2c1.6-1.9,4.2-2.8,7.5-2.8h1.7c6.6,0,9.9,3.5,9.9,10.6V144h-10.7v-30.6
	c0-0.4-0.2-0.8-0.4-1.1c-0.3-0.3-0.7-0.5-1.1-0.5h-4.4c-0.4,0-0.8,0.2-1.1,0.5s-0.4,0.7-0.4,1.1V144H141.3z"/>
<linearGradient id="SVGID_9_" gradientUnits="userSpaceOnUse" x1="173.4168" y1="595.52" x2="173.4168" y2="528" gradientTransform="matrix(1 0 0 1 0 -438)">
	<stop  offset="0" style="stop-color:#FFFFFF"/>
	<stop  offset="0.4" style="stop-color:#F1F1F1"/>
	<stop  offset="0.98" style="stop-color:#FFFFFF"/>
</linearGradient>
<path class="st8" d="M177.6,100.1c-2.3,2.3-6,2.3-8.3,0c-2.3-2.2-2.4-5.9-0.1-8.2l0.1-0.1c1.1-1.1,2.6-1.8,4.2-1.8
	c1.6,0,3,0.6,4.1,1.7s1.8,2.6,1.7,4.2C179.4,97.5,178.7,99,177.6,100.1z M168.1,144v-39h10.7v39H168.1z"/>
<linearGradient id="SVGID_10_" gradientUnits="userSpaceOnUse" x1="200.75" y1="595.52" x2="200.75" y2="528" gradientTransform="matrix(1 0 0 1 0 -438)">
	<stop  offset="0" style="stop-color:#FFFFFF"/>
	<stop  offset="0.4" style="stop-color:#F1F1F1"/>
	<stop  offset="0.98" style="stop-color:#FFFFFF"/>
</linearGradient>
<path class="st9" d="M205.3,104.2c6.6,0,9.9,3.5,9.9,10.6v12.6H197v8.2c0,0.4,0.2,0.8,0.4,1.1c0.3,0.3,0.7,0.5,1.1,0.5h4.4
	c0.4,0,0.8-0.2,1.1-0.5s0.4-0.7,0.4-1.1v-4.3h10.7v3c0,7-3.3,10.6-9.9,10.6h-9c-6.6,0-9.9-3.5-9.9-10.6v-19.5c0-7,3.3-10.6,9.9-10.6
	C196.2,104.2,205.3,104.2,205.3,104.2z M197.1,120.3h7.4v-7.2c0-0.4-0.2-0.8-0.4-1.1c-0.3-0.3-0.7-0.5-1.1-0.5h-4.4
	c-0.4,0-0.8,0.2-1.1,0.5s-0.4,0.7-0.4,1.1V120.3z"/>
<linearGradient id="SVGID_11_" gradientUnits="userSpaceOnUse" x1="230.55" y1="595.52" x2="230.55" y2="528" gradientTransform="matrix(1 0 0 1 0 -438)">
	<stop  offset="0" style="stop-color:#FFFFFF"/>
	<stop  offset="0.4" style="stop-color:#F1F1F1"/>
	<stop  offset="0.98" style="stop-color:#FFFFFF"/>
</linearGradient>
<path class="st10" d="M237.8,104.2h2.1v10.4h-5.3c-1.8,0-2.7,0.9-2.7,2.8V144h-10.7v-39h9.8v3.8
	C232.5,105.7,234.8,104.2,237.8,104.2z"/>
<linearGradient id="SVGID_12_" gradientUnits="userSpaceOnUse" x1="251.4168" y1="595.52" x2="251.4168" y2="528" gradientTransform="matrix(1 0 0 1 0 -438)">
	<stop  offset="0" style="stop-color:#FFFFFF"/>
	<stop  offset="0.4" style="stop-color:#F1F1F1"/>
	<stop  offset="0.98" style="stop-color:#FFFFFF"/>
</linearGradient>
<path class="st11" d="M255.6,100.1c-2.3,2.3-6,2.3-8.3,0c-2.3-2.2-2.4-5.9-0.1-8.2l0.1-0.1c1.1-1.1,2.6-1.8,4.2-1.8
	c1.6,0,3,0.6,4.1,1.7s1.8,2.6,1.7,4.2C257.4,97.5,256.7,99,255.6,100.1z M246.1,144v-39h10.7v39H246.1z"/>
<linearGradient id="SVGID_13_" gradientUnits="userSpaceOnUse" x1="278.8" y1="595.52" x2="278.8" y2="528" gradientTransform="matrix(1 0 0 1 0 -438)">
	<stop  offset="0" style="stop-color:#FFFFFF"/>
	<stop  offset="0.4" style="stop-color:#F1F1F1"/>
	<stop  offset="0.98" style="stop-color:#FFFFFF"/>
</linearGradient>
<path class="st12" d="M284.2,105h9v39h-9v-2.9c-1.7,2.4-4.4,3.7-8.2,3.7h-1.7c-6.6,0-9.9-3.5-9.9-10.6v-19.5c0-7,3.3-10.6,9.9-10.6
	h1.7c3.8,0,6.6,1.2,8.2,3.7V105z M282.5,135.6v-22.1c0-0.4-0.2-0.8-0.4-1.1c-0.3-0.3-0.7-0.5-1.1-0.5h-4.4c-0.4,0-0.8,0.2-1.1,0.5
	c-0.3,0.3-0.4,0.7-0.4,1.1v22.1c0,0.4,0.2,0.8,0.4,1.1c0.3,0.3,0.7,0.5,1.1,0.5h4.4c0.4,0,0.8-0.2,1.1-0.5
	C282.4,136.3,282.5,135.9,282.5,135.6L282.5,135.6z"/>
<linearGradient id="SVGID_14_" gradientUnits="userSpaceOnUse" x1="332.1" y1="595.52" x2="332.1" y2="528" gradientTransform="matrix(1 0 0 1 0 -438)">
	<stop  offset="0" style="stop-color:#FFFFFF"/>
	<stop  offset="0.4" style="stop-color:#F1F1F1"/>
	<stop  offset="0.98" style="stop-color:#FFFFFF"/>
</linearGradient>
<path class="st13" d="M337.3,92.2c6.6,0,9.9,3.5,9.9,10.6v10.3c0,7-3.3,10.6-9.9,10.6h-9V144H317V92.2H337.3z M336,114.4v-12.9
	c0-0.4-0.2-0.8-0.4-1.1c-0.3-0.3-0.7-0.5-1.1-0.5h-6.2V116h6.2c0.4,0,0.8-0.2,1.1-0.5C335.8,115.2,336,114.8,336,114.4z"/>
<linearGradient id="SVGID_15_" gradientUnits="userSpaceOnUse" x1="361.75" y1="595.52" x2="361.75" y2="528" gradientTransform="matrix(1 0 0 1 0 -438)">
	<stop  offset="0" style="stop-color:#FFFFFF"/>
	<stop  offset="0.4" style="stop-color:#F1F1F1"/>
	<stop  offset="0.98" style="stop-color:#FFFFFF"/>
</linearGradient>
<path class="st14" d="M369,104.2h2.1v10.4h-5.3c-1.8,0-2.7,0.9-2.7,2.8V144h-10.7v-39h9.8v3.8C363.7,105.7,366,104.2,369,104.2z"/>
<linearGradient id="SVGID_16_" gradientUnits="userSpaceOnUse" x1="390.4" y1="595.52" x2="390.4" y2="528" gradientTransform="matrix(1 0 0 1 0 -438)">
	<stop  offset="0" style="stop-color:#FFFFFF"/>
	<stop  offset="0.4" style="stop-color:#F1F1F1"/>
	<stop  offset="0.98" style="stop-color:#FFFFFF"/>
</linearGradient>
<path class="st15" d="M404.8,114.7v19.5c0,7-3.3,10.6-9.9,10.6h-9c-6.6,0-9.9-3.5-9.9-10.6v-19.5c0-7,3.3-10.6,9.9-10.6h9
	C401.5,104.2,404.8,107.7,404.8,114.7z M394,136.5v-24.1c0-0.4-0.2-0.8-0.4-1.1c-0.3-0.3-0.7-0.5-1.1-0.5h-4.4
	c-0.4,0-0.8,0.2-1.1,0.5c-0.3,0.3-0.4,0.7-0.4,1.1v24.1c0,0.4,0.2,0.8,0.4,1.1c0.3,0.3,0.7,0.5,1.1,0.5h4.4c0.4,0,0.8-0.2,1.1-0.5
	C393.9,137.3,394.1,136.9,394,136.5z"/>
<linearGradient id="SVGID_17_" gradientUnits="userSpaceOnUse" x1="426.5" y1="595.6" x2="426.5" y2="528.08" gradientTransform="matrix(1 0 0 1 0 -438)">
	<stop  offset="0" style="stop-color:#FFFFFF"/>
	<stop  offset="0.4" style="stop-color:#F1F1F1"/>
	<stop  offset="0.98" style="stop-color:#FFFFFF"/>
</linearGradient>
<path class="st16" d="M430.2,105h10.7v42c0,7-3.3,10.6-9.9,10.6h-8c-6.6,0-9.9-3.5-9.9-10.6v-1.3h10.4v2.6c0,0.4,0.2,0.8,0.4,1.1
	c0.3,0.3,0.7,0.5,1.1,0.5h3.7c0.4,0,0.8-0.2,1.1-0.5c0.3-0.3,0.4-0.7,0.4-1.1v-7.9c-1.9,1.4-4.2,2.1-6.6,1.9H422
	c-6.6,0-9.9-3.5-9.9-10.6V105h10.7v28c0,0.4,0.2,0.8,0.4,1.1c0.3,0.3,0.7,0.5,1.1,0.5h4.4c0.4,0,0.8-0.2,1.1-0.5
	c0.3-0.3,0.4-0.7,0.4-1.1V105z"/>
<linearGradient id="SVGID_18_" gradientUnits="userSpaceOnUse" x1="462.65" y1="595.52" x2="462.65" y2="528" gradientTransform="matrix(1 0 0 1 0 -438)">
	<stop  offset="0" style="stop-color:#FFFFFF"/>
	<stop  offset="0.4" style="stop-color:#F1F1F1"/>
	<stop  offset="0.98" style="stop-color:#FFFFFF"/>
</linearGradient>
<path class="st17" d="M467.2,104.2c6.6,0,9.9,3.5,9.9,10.6v12.6h-18.2v8.2c0,0.4,0.2,0.8,0.4,1.1c0.3,0.3,0.7,0.5,1.1,0.5h4.4
	c0.4,0,0.8-0.2,1.1-0.5c0.3-0.3,0.4-0.7,0.4-1.1v-4.3H477v3c0,7-3.3,10.6-9.9,10.6h-9c-6.6,0-9.9-3.5-9.9-10.6v-19.5
	c0-7,3.3-10.6,9.9-10.6C458.1,104.2,467.2,104.2,467.2,104.2z M458.9,120.3h7.4v-7.2c0-0.4-0.2-0.8-0.4-1.1
	c-0.3-0.3-0.7-0.5-1.1-0.5h-4.4c-0.4,0-0.8,0.2-1.1,0.5c-0.3,0.3-0.4,0.7-0.4,1.1V120.3z"/>
<linearGradient id="SVGID_19_" gradientUnits="userSpaceOnUse" x1="497.5" y1="595.52" x2="497.5" y2="528" gradientTransform="matrix(1 0 0 1 0 -438)">
	<stop  offset="0" style="stop-color:#FFFFFF"/>
	<stop  offset="0.4" style="stop-color:#F1F1F1"/>
	<stop  offset="0.98" style="stop-color:#FFFFFF"/>
</linearGradient>
<path class="st18" d="M511.9,120.3h-10.7v-6.9c0-0.4-0.2-0.8-0.4-1.1c-0.3-0.3-0.7-0.5-1.1-0.5h-4.4c-0.4,0-0.8,0.2-1.1,0.5
	c-0.3,0.3-0.4,0.7-0.4,1.1v22.1c0,0.4,0.2,0.8,0.4,1.1c0.3,0.3,0.7,0.5,1.1,0.5h4.4c0.4,0,0.8-0.2,1.1-0.5c0.3-0.3,0.4-0.7,0.4-1.1
	v-6.9h10.7v5.6c0,7-3.3,10.6-9.9,10.6h-9c-6.6,0-9.9-3.5-9.9-10.6v-19.5c0-7,3.3-10.6,9.9-10.6h9c6.6,0,9.9,3.5,9.9,10.6V120.3z"/>
<linearGradient id="SVGID_20_" gradientUnits="userSpaceOnUse" x1="527.4" y1="595.52" x2="527.4" y2="528" gradientTransform="matrix(1 0 0 1 0 -438)">
	<stop  offset="0" style="stop-color:#FFFFFF"/>
	<stop  offset="0.4" style="stop-color:#F1F1F1"/>
	<stop  offset="0.98" style="stop-color:#FFFFFF"/>
</linearGradient>
<path class="st19" d="M532.9,137.8h3.2v7h-7.5c-6.6,0-9.9-3.5-9.9-10.6V96.5h10.7v8.5h6.7v7.8h-6.7V134c-0.1,1.1,0.2,2.2,0.9,3
	C531,137.6,532,137.9,532.9,137.8z"/>
<linearGradient id="SVGID_21_" gradientUnits="userSpaceOnUse" x1="556.2" y1="595.52" x2="556.2" y2="528" gradientTransform="matrix(1 0 0 1 0 -438)">
	<stop  offset="0" style="stop-color:#FFFFFF"/>
	<stop  offset="0.4" style="stop-color:#F1F1F1"/>
	<stop  offset="0.98" style="stop-color:#FFFFFF"/>
</linearGradient>
<path class="st20" d="M570.6,114.7v19.5c0,7-3.3,10.6-9.9,10.6h-9c-6.6,0-9.9-3.5-9.9-10.6v-19.5c0-7,3.3-10.6,9.9-10.6h9
	C567.3,104.2,570.6,107.7,570.6,114.7z M559.9,136.5v-24.1c0-0.4-0.2-0.8-0.4-1.1c-0.3-0.3-0.7-0.5-1.1-0.5H554
	c-0.4,0-0.8,0.2-1.1,0.5s-0.4,0.7-0.4,1.1v24.1c0,0.4,0.2,0.8,0.4,1.1c0.3,0.3,0.7,0.5,1.1,0.5h4.4c0.4,0,0.8-0.2,1.1-0.5
	S559.9,136.9,559.9,136.5z"/>
<linearGradient id="SVGID_22_" gradientUnits="userSpaceOnUse" x1="591.7999" y1="595.52" x2="591.7999" y2="528" gradientTransform="matrix(1 0 0 1 0 -438)">
	<stop  offset="0" style="stop-color:#FFFFFF"/>
	<stop  offset="0.4" style="stop-color:#F1F1F1"/>
	<stop  offset="0.98" style="stop-color:#FFFFFF"/>
</linearGradient>
<path class="st21" d="M596.3,119.5c6.6,0,9.9,3.5,9.9,10.6v4.2c0,7-3.3,10.6-9.9,10.6h-8.9c-6.6,0-9.9-3.5-9.9-10.6v-2.5h9.9v3.5
	c0,0.4,0.2,0.8,0.4,1.1c0.3,0.3,0.7,0.5,1.1,0.5h6.6c0.4,0,0.8-0.2,1.1-0.5s0.4-0.7,0.4-1.1v-4.8c0-0.4-0.2-0.8-0.4-1.1
	c-0.3-0.3-0.7-0.5-1.1-0.5h-8.2c-6.6,0-9.9-3.5-9.9-10.6v-3.6c0-7,3.3-10.6,9.9-10.6h8.4c6.6,0,9.9,3.5,9.9,10.6v1.4h-9.9v-2.5
	c0-0.4-0.2-0.8-0.4-1.1c-0.3-0.3-0.7-0.5-1.1-0.5H588c-0.4,0-0.8,0.2-1.1,0.5s-0.4,0.7-0.4,1.1v4.2c0,0.4,0.2,0.8,0.5,1.1
	c0.3,0.3,0.7,0.5,1.1,0.5L596.3,119.5z"/>
</svg>
